<svg width="109" height="24" viewBox="0 0 109 24" fill="none" xmlns="http://www.w3.org/2000/svg">
<g clip-path="url(#clip0_3495_7805)">
<path d="M61.2187 22.5871C59.4798 22.627 57.7624 22.1951 56.2478 21.3368C54.8396 20.5128 53.6865 19.3131 52.9166 17.8711C52.1234 16.2799 51.7104 14.5251 51.7104 12.7459C51.7104 10.9667 52.1234 9.21197 52.9166 7.6208C53.6865 6.17873 54.8396 4.97905 56.2478 4.15502C57.7743 3.33238 59.48 2.90186 61.2126 2.90186C62.9452 2.90186 64.6509 3.33238 66.1773 4.15502C67.5896 4.97388 68.744 6.17487 69.5085 7.6208C70.2938 9.21435 70.7022 10.9682 70.7022 12.7459C70.7022 14.5237 70.2938 16.2775 69.5085 17.8711C68.744 19.317 67.5896 20.518 66.1773 21.3368C64.666 22.1922 62.9534 22.6241 61.2187 22.5871ZM61.2187 19.4615C63.0263 19.4615 64.4664 18.8629 65.5392 17.6657C66.6119 16.4686 67.1493 14.8282 67.1513 12.7444C67.1513 10.6606 66.614 9.02018 65.5392 7.82305C64.4644 6.6259 63.0242 6.02835 61.2187 6.0304C59.4131 6.0304 57.9689 6.62795 56.886 7.82305C55.8031 9.01814 55.2606 10.6586 55.2585 12.7444C55.2585 14.8302 55.801 16.4706 56.886 17.6657C57.9709 18.8608 59.4152 19.4594 61.2187 19.4615Z" fill="#F4F3EC"/>
<path d="M80.8793 22.5874C79.9616 22.6078 79.052 22.4127 78.2229 22.0174C77.4847 21.6493 76.8537 21.0962 76.3909 20.4117L76.0122 22.2503H72.9131V2.6875H76.3817V10.7069C76.8504 10.0768 77.4337 9.54134 78.1007 9.12877C78.9438 8.64191 79.9075 8.40596 80.8793 8.44849C82.0719 8.42746 83.246 8.74623 84.2654 9.36779C85.26 9.98658 86.0734 10.8589 86.6226 11.8959C87.2094 13.0207 87.5035 14.2761 87.4776 15.5455C87.5003 16.8102 87.2018 18.0598 86.6104 19.1768C86.0602 20.2058 85.2465 21.069 84.2532 21.6773C83.2348 22.2897 82.0664 22.6049 80.8793 22.5874ZM80.1465 19.5414C80.6564 19.5583 81.1643 19.468 81.6375 19.2765C82.1107 19.0849 82.5389 18.7963 82.8945 18.4291C83.2584 18.0458 83.5418 17.593 83.728 17.0977C83.9142 16.6024 83.9994 16.0745 83.9784 15.5455C83.9978 15.013 83.9121 14.4819 83.726 13.9828C83.54 13.4837 83.2574 13.0264 82.8945 12.6375C82.1672 11.9049 81.18 11.4918 80.1496 11.489C79.1192 11.4861 78.1298 11.8936 77.3985 12.6221C76.7073 13.4275 76.3271 14.4551 76.3271 15.5179C76.3271 16.5808 76.7073 17.6084 77.3985 18.4138C77.7512 18.7866 78.1789 19.08 78.6532 19.2744C79.1275 19.4688 79.6375 19.5598 80.1495 19.5414H80.1465Z" fill="#F4F3EC"/>
<path d="M96.0272 22.5875C94.7989 22.6072 93.5878 22.2973 92.5189 21.6896C91.4877 21.1001 90.6359 20.2399 90.0549 19.2014C89.4555 18.069 89.1421 16.8064 89.1421 15.5242C89.1421 14.242 89.4555 12.9793 90.0549 11.847C90.6451 10.8102 91.5012 9.95108 92.5342 9.35871C93.6054 8.76969 94.8072 8.46094 96.0287 8.46094C97.2502 8.46094 98.452 8.76969 99.5233 9.35871C100.554 9.94914 101.405 10.8091 101.987 11.847C102.583 12.9805 102.894 14.2427 102.894 15.5242C102.894 16.8057 102.583 18.0678 101.987 19.2014C101.404 20.2426 100.548 21.1032 99.5111 21.6896C98.4488 22.2915 97.247 22.6013 96.0272 22.5875ZM96.0272 19.5691C96.4687 19.5712 96.9058 19.482 97.3114 19.3069C97.717 19.1319 98.0822 18.8748 98.3844 18.5518C99.0541 17.8715 99.3879 16.8602 99.3859 15.5181C99.3838 14.1759 99.05 13.1656 98.3844 12.4874C98.0826 12.1654 97.7183 11.9087 97.314 11.7333C96.9096 11.5578 96.4738 11.4673 96.0333 11.4673C95.5928 11.4673 95.157 11.5578 94.7526 11.7333C94.3483 11.9087 93.984 12.1654 93.6822 12.4874C93.0247 13.1677 92.696 14.1779 92.696 15.5181C92.696 16.8582 93.0247 17.8694 93.6822 18.5518C93.9815 18.8752 94.3445 19.1327 94.7482 19.3078C95.1518 19.4829 95.5874 19.5719 96.0272 19.5691Z" fill="#F4F3EC"/>
<path d="M105.035 22.2626V2.6875H108.503V22.2626H105.035Z" fill="#F4F3EC"/>
<path d="M32.0077 23.988C26.6216 24.2761 20.0691 19.6795 15.2601 16.5324C-2.17149 31.6979 -6.39427 1.18311 14.854 11.9053C19.5714 8.37821 24.6247 3.00027 30.3284 0.815386C49.8729 -5.17848 49.9645 23.8133 32.0077 23.988ZM18.4111 13.9676C42.6547 33.4538 49.1187 -0.811785 31.6413 4.43438C27.0857 6.15655 22.3255 11.0105 18.4111 13.9676ZM5.66646 16.8634C7.72441 17.3292 9.60528 16.0513 11.5197 14.608C9.62055 13.8757 6.50307 12.8522 5.00693 13.8052C3.72758 14.7827 4.04818 16.4926 5.66646 16.8634Z" fill="#2FE4AB"/>
<path d="M6.04785 16.9307V20.8408C8.44168 20.9143 11.5439 19.7591 15.2598 16.5323C14.0864 15.7564 12.8322 15.1111 11.5195 14.6079C9.72409 15.9593 7.95925 17.1666 6.04785 16.9307Z" fill="url(#paint0_linear_3495_7805)"/>
<path d="M25.4735 8.19695L22.2462 5.8374C19.6722 7.90278 17.2203 10.1275 14.854 11.9048C16.0944 12.4926 17.2841 13.1824 18.4112 13.9671C20.5668 12.3369 22.979 10.1367 25.4735 8.19695Z" fill="url(#paint1_linear_3495_7805)"/>
</g>
<defs>
<linearGradient id="paint0_linear_3495_7805" x1="8.93937" y1="20.3536" x2="11.6176" y2="14.738" gradientUnits="userSpaceOnUse">
<stop stop-color="#2FE4AB" stop-opacity="0"/>
<stop offset="1" stop-color="#0F7C76"/>
</linearGradient>
<linearGradient id="paint1_linear_3495_7805" x1="22.0324" y1="6.9896" x2="18.0883" y2="13.4029" gradientUnits="userSpaceOnUse">
<stop stop-color="#2FE4AB" stop-opacity="0"/>
<stop offset="1" stop-color="#0F7C76"/>
</linearGradient>
<clipPath id="clip0_3495_7805">
<rect width="108" height="24" fill="white" transform="translate(0.5)"/>
</clipPath>
</defs>
</svg>
